# xmcd
# 
# Track frame offsets:
#     150
#     13281
#     27629
#     39066
#     53123
#     64786
#     76524
#     89484
#     100687
#     110835
#     123497
#     136273
#     148021
#     158945
#     168771
#     179141
#     191384
#     201743
#     212488
#     226594
#     238937
#     251781
#     263653
#     275636
#     285418
# 
# Disc length: 3965
# 
# Revision: 2
# Processed by: cddbd v1.5.2PL0 Copyright (c) Steve Scherf et al.
# Submitted via: fre:ac v1.0.31
# 
DISCID=6a0f7b19
DTITLE=Blues - Screaming And Crying Disc 2
DYEAR=2012
DGENRE=Blues
TTITLE0=Buddy Guy - Let Me Love You Baby
TTITLE1=Lowell Fulson - Reconsider Baby
TTITLE2=B.B. King - She's Dynamite
TTITLE3=Pee Wee Crayton and His Guitar - Texas Hop
TTITLE4=Little Milton - If You Love Me Baby
TTITLE5=Doctor Ross - The Boogie Disease
TTITLE6=Rudy Green - Cool Lovin' Mama
TTITLE7=Icky Renrut (Ike Turner) - Ho...Ho
TTITLE8=Jimmy Reed feat. Eddie Taylor - Ain't That Lovin' You Baby
TTITLE9=T-Bone Walker - Blues Is A Woman
TTITLE10=Bo Diddley - Nursery Rhyme
TTITLE11=Albert King - I've Made Nights By Myself
TTITLE12=Jimmy Nolen - Strollin' With Nolen
TTITLE13=Guitar Slim and His Band - A Letter To My Girl Friend
TTITLE14=Mickey Baker with Bill Hendricks Orchestra - Spinnin' Rock Boogie
TTITLE15=Jerry Thomas (Lafayette Thomas) - Jumpin' In The Heart Of Town
TTITLE16=Elmore James - I Can't Hold Out
TTITLE17=Chuck Berry - Mad Lad
TTITLE18=Freddy King - Have You Ever Loved A Woman
TTITLE19=Otis Rush and His Band - Double Trouble
TTITLE20=Clarence 'Gatemouth' Brown - Dirty Work At The Crossroads
TTITLE21=Rocky Thompson (Goree Carter) - Bull Corn Blues
TTITLE22=John Lee Hooker - Wobbling Baby
TTITLE23=Guitar Shorty - Irma Lee
TTITLE24=Young John Watson (Johnny 'Guitar' Watson) - Space Guitar
EXTD=
EXTT0=
EXTT1=
EXTT2=
EXTT3=
EXTT4=
EXTT5=
EXTT6=
EXTT7=
EXTT8=
EXTT9=
EXTT10=
EXTT11=
EXTT12=
EXTT13=
EXTT14=
EXTT15=
EXTT16=
EXTT17=
EXTT18=
EXTT19=
EXTT20=
EXTT21=
EXTT22=
EXTT23=
EXTT24=
PLAYORDER=
